<?xml version="1.0" encoding="UTF-8" standalone="no"?>
<!-- Created with Inkscape (http://www.inkscape.org/) -->

<svg
   xmlns:dc="http://purl.org/dc/elements/1.1/"
   xmlns:cc="http://creativecommons.org/ns#"
   xmlns:rdf="http://www.w3.org/1999/02/22-rdf-syntax-ns#"
   xmlns:svg="http://www.w3.org/2000/svg"
   xmlns="http://www.w3.org/2000/svg"
   xmlns:sodipodi="http://sodipodi.sourceforge.net/DTD/sodipodi-0.dtd"
   xmlns:inkscape="http://www.inkscape.org/namespaces/inkscape"
   id="svg5930"
   version="1.1"
   inkscape:version="0.48.4 r9939"
   width="743.75"
   height="1052.5"
   xml:space="preserve"
   sodipodi:docname="2-3_factor.svg"
   inkscape:export-filename="/home/clemens/Rstats/R-Tutorial_CAA2016/img/2-3_factor.png"
   inkscape:export-xdpi="400"
   inkscape:export-ydpi="400"><sodipodi:namedview
     pagecolor="#ffffff"
     bordercolor="#666666"
     borderopacity="1"
     objecttolerance="10"
     gridtolerance="10"
     guidetolerance="10"
     inkscape:pageopacity="0"
     inkscape:pageshadow="2"
     inkscape:window-width="1867"
     inkscape:window-height="1059"
     id="namedview5932"
     showgrid="false"
     inkscape:zoom="1.1856993"
     inkscape:cx="318.72993"
     inkscape:cy="821.45017"
     inkscape:window-x="53"
     inkscape:window-y="21"
     inkscape:window-maximized="1"
     inkscape:current-layer="g5938" /><metadata
     id="metadata5936"><rdf:RDF><cc:Work
         rdf:about=""><dc:format>image/svg+xml</dc:format><dc:type
           rdf:resource="http://purl.org/dc/dcmitype/StillImage" /><dc:title></dc:title></cc:Work></rdf:RDF></metadata><defs
     id="defs5934"><marker
       inkscape:stockid="Arrow2Lend"
       orient="auto"
       refY="0.0"
       refX="0.0"
       id="Arrow2Lend"
       style="overflow:visible;"><path
         id="path9525"
         style="fill-rule:evenodd;stroke-width:0.62500000;stroke-linejoin:round;"
         d="M 8.7185878,4.0337352 L -2.2072895,0.016013256 L 8.7185884,-4.0017078 C 6.9730900,-1.6296469 6.9831476,1.6157441 8.7185878,4.0337352 z "
         transform="scale(1.1) rotate(180) translate(1,0)" /></marker><clipPath
       clipPathUnits="userSpaceOnUse"
       id="clipPath5944"><path
         d="m 0,0.1 595.2,0 0,841.8 L 0,841.9 0,0.1 z"
         clip-rule="evenodd"
         id="path5946" /></clipPath><clipPath
       clipPathUnits="userSpaceOnUse"
       id="clipPath6430"><path
         d="m -177,420 949,0 0,0.1 -949,0 0,-0.1 z"
         id="path6432" /></clipPath><clipPath
       clipPathUnits="userSpaceOnUse"
       id="clipPath6686"><rect
         style="fill:none;stroke:#000000;stroke-width:5;stroke-miterlimit:0;stroke-opacity:1;stroke-dasharray:none"
         id="rect6688"
         width="330.34146"
         height="166.07578"
         x="66.068291"
         y="413.53818" /></clipPath><clipPath
       clipPathUnits="userSpaceOnUse"
       id="clipPath6690"><rect
         style="fill:none;stroke:#000000;stroke-width:5;stroke-miterlimit:0;stroke-opacity:1;stroke-dasharray:none"
         id="rect6692"
         width="330.34146"
         height="166.07578"
         x="66.068291"
         y="413.53818" /></clipPath><clipPath
       clipPathUnits="userSpaceOnUse"
       id="clipPath6694"><rect
         style="fill:none;stroke:#000000;stroke-width:4;stroke-miterlimit:0;stroke-opacity:1;stroke-dasharray:none"
         id="rect6696"
         width="264.27316"
         height="132.86063"
         x="51.830692"
         y="-503.4899"
         transform="scale(1,-1)" /></clipPath><clipPath
       clipPathUnits="userSpaceOnUse"
       id="clipPath7457"><rect
         style="fill:none;stroke:#000000;stroke-width:4;stroke-miterlimit:0;stroke-opacity:1;stroke-dasharray:none"
         id="rect7459"
         width="165.80426"
         height="114.75972"
         x="50.382618"
         y="-625.12793"
         transform="scale(1,-1)" /></clipPath><clipPath
       clipPathUnits="userSpaceOnUse"
       id="clipPath8691"><rect
         style="fill:none;stroke:#000000;stroke-width:4;stroke-miterlimit:0;stroke-opacity:1;stroke-dasharray:none"
         id="rect8693"
         width="173.04613"
         height="133.36839"
         x="52.477009"
         y="-764.37244"
         transform="scale(1,-1)" /></clipPath><marker
       inkscape:stockid="Arrow2Lendg"
       orient="auto"
       refY="0.0"
       refX="0.0"
       id="Arrow2Lendg"
       style="overflow:visible;"><path
         id="path10230"
         style="stroke-linejoin:round;stroke:#ff0000;stroke-width:0.62500000;fill:#ff0000;fill-rule:evenodd"
         d="M 8.7185878,4.0337352 L -2.2072895,0.016013256 L 8.7185884,-4.0017078 C 6.9730900,-1.6296469 6.9831476,1.6157441 8.7185878,4.0337352 z "
         transform="scale(1.1) rotate(180) translate(1,0)" /></marker><marker
       inkscape:stockid="Arrow2Lend2"
       orient="auto"
       refY="0.0"
       refX="0.0"
       id="Arrow2Lend2"
       style="overflow:visible;"><path
         id="path11748"
         style="stroke-linejoin:round;stroke:#ff0000;stroke-width:0.62500000;fill:#ff0000;fill-rule:evenodd"
         d="M 8.7185878,4.0337352 L -2.2072895,0.016013256 L 8.7185884,-4.0017078 C 6.9730900,-1.6296469 6.9831476,1.6157441 8.7185878,4.0337352 z "
         transform="scale(1.1) rotate(180) translate(1,0)" /></marker><clipPath
       id="clipPath13641"
       clipPathUnits="userSpaceOnUse"><path
         id="path13643"
         d="m -177,420 949,0 0,0.1 -949,0 0,-0.1 z" /></clipPath><clipPath
       id="clipPath13347"
       clipPathUnits="userSpaceOnUse"><path
         id="path13349"
         clip-rule="evenodd"
         d="m 0,0.1 595.2,0 0,841.8 L 0,841.9 0,0.1 z" /></clipPath><clipPath
       clipPathUnits="userSpaceOnUse"
       id="clipPath13805"><rect
         style="fill:none;stroke:#ff0000;stroke-width:0.73872918;stroke-miterlimit:4;stroke-opacity:1;stroke-dasharray:none"
         id="rect13807"
         width="172.07146"
         height="134.18561"
         x="51.952305"
         y="-761.34271"
         transform="scale(1,-1)" /></clipPath><clipPath
       id="clipPath13347-8"
       clipPathUnits="userSpaceOnUse"><path
         inkscape:connector-curvature="0"
         id="path13349-8"
         clip-rule="evenodd"
         d="m 0,0.1 595.2,0 0,841.8 L 0,841.9 0,0.1 z" /></clipPath><clipPath
       id="clipPath13641-0"
       clipPathUnits="userSpaceOnUse"><path
         inkscape:connector-curvature="0"
         id="path13643-1"
         d="m -177,420 949,0 0,0.1 -949,0 0,-0.1 z" /></clipPath><clipPath
       clipPathUnits="userSpaceOnUse"
       id="clipPath14609"><rect
         style="fill:none;stroke:#ff0000;stroke-width:0.48548779;stroke-miterlimit:4;stroke-opacity:1;stroke-dasharray:none"
         id="rect14611"
         width="74.579826"
         height="133.71481"
         x="49.653576"
         y="-621.73041"
         transform="scale(1,-1)" /></clipPath><clipPath
       id="clipPath13347-2"
       clipPathUnits="userSpaceOnUse"><path
         inkscape:connector-curvature="0"
         id="path13349-9"
         clip-rule="evenodd"
         d="m 0,0.1 595.2,0 0,841.8 L 0,841.9 0,0.1 z" /></clipPath><clipPath
       id="clipPath13641-8"
       clipPathUnits="userSpaceOnUse"><path
         inkscape:connector-curvature="0"
         id="path13643-11"
         d="m -177,420 949,0 0,0.1 -949,0 0,-0.1 z" /></clipPath><clipPath
       clipPathUnits="userSpaceOnUse"
       id="clipPath15096"><rect
         style="fill:none;stroke:#ff0000;stroke-width:0.4459396;stroke-miterlimit:4;stroke-opacity:1;stroke-dasharray:none"
         id="rect15098"
         width="74.619377"
         height="112.75732"
         x="49.633804"
         y="-479.83908"
         transform="scale(1,-1)" /></clipPath><marker
       inkscape:stockid="Arrow2Lend"
       orient="auto"
       refY="0"
       refX="0"
       id="Arrow2Lend-4"
       style="overflow:visible"><path
         inkscape:connector-curvature="0"
         id="path9525-2"
         style="fill-rule:evenodd;stroke-width:0.625;stroke-linejoin:round"
         d="M 8.7185878,4.0337352 -2.2072895,0.01601326 8.7185884,-4.0017078 c -1.7454984,2.3720609 -1.7354408,5.6174519 -6e-7,8.035443 z"
         transform="matrix(-1.1,0,0,-1.1,-1.1,0)" /></marker><marker
       inkscape:stockid="Arrow2Lend"
       orient="auto"
       refY="0"
       refX="0"
       id="Arrow2Lend-45"
       style="overflow:visible"><path
         inkscape:connector-curvature="0"
         id="path9525-4"
         style="fill-rule:evenodd;stroke-width:0.625;stroke-linejoin:round"
         d="M 8.7185878,4.0337352 -2.2072895,0.01601326 8.7185884,-4.0017078 c -1.7454984,2.3720609 -1.7354408,5.6174519 -6e-7,8.035443 z"
         transform="matrix(-1.1,0,0,-1.1,-1.1,0)" /></marker><marker
       inkscape:stockid="Arrow2LendB"
       orient="auto"
       refY="0.0"
       refX="0.0"
       id="Arrow2LendB"
       style="overflow:visible;"><path
         id="path15194"
         style="stroke-linejoin:round;stroke:#ff0000;stroke-width:0.62500000;fill:#ff0000;fill-rule:evenodd"
         d="M 8.7185878,4.0337352 L -2.2072895,0.016013256 L 8.7185884,-4.0017078 C 6.9730900,-1.6296469 6.9831476,1.6157441 8.7185878,4.0337352 z "
         transform="scale(1.1) rotate(180) translate(1,0)" /></marker><clipPath
       clipPathUnits="userSpaceOnUse"
       id="clipPath3866"><path
         d="m -177,420 949,0 0,0.1 -949,0 0,-0.1 z"
         id="path3868" /></clipPath><clipPath
       clipPathUnits="userSpaceOnUse"
       id="clipPath3524"><path
         d="m 0,0.1 595.2,0 0,841.8 L 0,841.9 0,0.1 z"
         clip-rule="evenodd"
         id="path3526" /></clipPath><clipPath
       clipPathUnits="userSpaceOnUse"
       id="clipPath4427"><path
         d="m -177,420 949,0 0,0.1 -949,0 0,-0.1 z"
         id="path4429" /></clipPath><clipPath
       clipPathUnits="userSpaceOnUse"
       id="clipPath4085"><path
         d="m 0,0.1 595.2,0 0,841.8 L 0,841.9 0,0.1 z"
         clip-rule="evenodd"
         id="path4087" /></clipPath><clipPath
       id="clipPath4615"
       clipPathUnits="userSpaceOnUse"><rect
         transform="scale(1,-1)"
         y="-761.50806"
         x="52.103199"
         height="133.41547"
         width="175.14453"
         id="rect4617"
         style="fill:none;stroke:#000000;stroke-width:4;stroke-miterlimit:0;stroke-opacity:1;stroke-dasharray:none" /></clipPath><clipPath
       clipPathUnits="userSpaceOnUse"
       id="clipPath4085-9"><path
         d="m 0,0.1 595.2,0 0,841.8 L 0,841.9 0,0.1 z"
         clip-rule="evenodd"
         id="path4087-8"
         inkscape:connector-curvature="0" /></clipPath><clipPath
       clipPathUnits="userSpaceOnUse"
       id="clipPath4427-2"><path
         d="m -177,420 949,0 0,0.1 -949,0 0,-0.1 z"
         id="path4429-7"
         inkscape:connector-curvature="0" /></clipPath><clipPath
       id="clipPath5174"
       clipPathUnits="userSpaceOnUse"><rect
         transform="scale(1,-1)"
         y="-620.45209"
         x="52.103203"
         height="133.41547"
         width="175.14453"
         id="rect5176"
         style="fill:none;stroke:#000000;stroke-width:4;stroke-miterlimit:0;stroke-opacity:1;stroke-dasharray:none" /></clipPath><clipPath
       clipPathUnits="userSpaceOnUse"
       id="clipPath4085-3"><path
         d="m 0,0.1 595.2,0 0,841.8 L 0,841.9 0,0.1 z"
         clip-rule="evenodd"
         id="path4087-0"
         inkscape:connector-curvature="0" /></clipPath><clipPath
       clipPathUnits="userSpaceOnUse"
       id="clipPath4427-8"><path
         d="m -177,420 949,0 0,0.1 -949,0 0,-0.1 z"
         id="path4429-9"
         inkscape:connector-curvature="0" /></clipPath><clipPath
       clipPathUnits="userSpaceOnUse"
       id="clipPath3650"><path
         d="m -177,420 949,0 0,0.1 -949,0 0,-0.1 z"
         id="path3652" /></clipPath><clipPath
       clipPathUnits="userSpaceOnUse"
       id="clipPath3420"><path
         d="m 0,0.1 595.2,0 0,841.8 L 0,841.9 0,0.1 z"
         clip-rule="evenodd"
         id="path3422" /></clipPath><clipPath
       id="clipPath3782"
       clipPathUnits="userSpaceOnUse"><rect
         transform="scale(1,-1)"
         y="-763.35522"
         x="49.016777"
         height="139.31032"
         width="279.09772"
         id="rect3784"
         style="fill:none;stroke:#000000;stroke-width:4;stroke-miterlimit:0;stroke-opacity:1;stroke-dasharray:none" /></clipPath><marker
       inkscape:stockid="Arrow2LendB"
       orient="auto"
       refY="0"
       refX="0"
       id="Arrow2LendB-1"
       style="overflow:visible"><path
         id="path15194-3"
         style="fill:#ff0000;fill-rule:evenodd;stroke:#ff0000;stroke-width:0.625;stroke-linejoin:round"
         d="M 8.7185878,4.0337352 -2.2072895,0.01601326 8.7185884,-4.0017078 c -1.7454984,2.3720609 -1.7354408,5.6174519 -6e-7,8.035443 z"
         transform="matrix(-1.1,0,0,-1.1,-1.1,0)"
         inkscape:connector-curvature="0" /></marker><marker
       inkscape:stockid="Arrow2LendBJ"
       orient="auto"
       refY="0.0"
       refX="0.0"
       id="Arrow2LendBJ"
       style="overflow:visible;"><path
         id="path4718"
         style="stroke-linejoin:round;fill-rule:evenodd;stroke:#0000ff;stroke-width:0.62500000;fill:#0000ff"
         d="M 8.7185878,4.0337352 L -2.2072895,0.016013256 L 8.7185884,-4.0017078 C 6.9730900,-1.6296469 6.9831476,1.6157441 8.7185878,4.0337352 z "
         transform="scale(1.1) rotate(180) translate(1,0)" /></marker></defs><g
     id="g5938"
     inkscape:groupmode="layer"
     inkscape:label="2-3_merge"
     transform="matrix(1.25,0,0,-1.25,0,1052.5)"><g
       id="g6426"><g
         id="g6428" /><g
         id="g6434"><g
           clip-path="url(#clipPath6430)"
           opacity="0.5"
           id="g6436" /></g></g><rect
       transform="matrix(0.8,0,0,-0.8,387.56455,948.23901)"
       style="fill:none;stroke:#000000;stroke-width:5;stroke-miterlimit:0;stroke-opacity:1;stroke-dasharray:none"
       id="rect6678-9"
       width="216.30766"
       height="166.71049"
       x="66.87619"
       y="87.435013"
       clip-path="url(#clipPath6690)" /><rect
       transform="matrix(0.8,0,0,-0.8,387.56455,948.23901)"
       style="fill:none;stroke:#000000;stroke-width:5;stroke-miterlimit:0;stroke-opacity:1;stroke-dasharray:none"
       id="rect6682-9"
       width="207.25533"
       height="143.44965"
       x="64.258202"
       y="261.4906"
       clip-path="url(#clipPath6686)" /><rect
       style="fill:none;stroke:#000000;stroke-width:2;stroke-miterlimit:0;stroke-opacity:1;stroke-dasharray:none"
       id="rect8695"
       width="733.08655"
       height="383.73911"
       x="5.4302707"
       y="7.1729255"
       transform="matrix(0.8,0,0,-0.8,0,842)" /><path
       inkscape:connector-curvature="0"
       id="path9944-1"
       d="M 181.59996,663.61125 C 138.95258,687.0067 81.329578,712.21922 65.462994,729.32493 -14.317821,815.33633 224.11496,811.90504 213.06262,666.04057"
       style="fill:none;stroke:#0000ff;stroke-width:0.78799999;stroke-linecap:butt;stroke-linejoin:miter;stroke-miterlimit:4;stroke-opacity:1;stroke-dasharray:none;marker-end:url(#Arrow2LendBJ)"
       sodipodi:nodetypes="csc" /><text
       xml:space="preserve"
       style="font-size:16px;font-style:normal;font-weight:normal;line-height:125%;letter-spacing:0px;word-spacing:0px;fill:#000000;fill-opacity:1;stroke:none;font-family:Sans"
       x="31.917667"
       y="-797.73389"
       id="text15143"
       sodipodi:linespacing="125%"
       transform="scale(1,-1)"><tspan
         sodipodi:role="line"
         id="tspan15145"
         x="31.917667"
         y="-797.73389"
         style="fill:#0000ff">tabelle1$Mannschaft &lt;- as.factor(tabelle1$Mannschaft)</tspan></text>
<g
       clip-path="url(#clipPath3782)"
       transform="translate(-44.722969,-93.5207)"
       id="g3414"
       inkscape:label="2-3_factor"><g
         id="g3416"><g
           id="g3418"
           clip-path="url(#clipPath3420)"><g
             id="g3424"><text
               transform="matrix(1,0,0,-1,56.8,774.1)"
               id="text3426"><tspan
                 style="font-size:12px;font-variant:normal;font-weight:normal;writing-mode:lr-tb;fill:#000000;fill-opacity:1;fill-rule:nonzero;stroke:none;font-family:DejaVuSans;-inkscape-font-specification:DejaVuSans"
                 x="0 7.5960002 14.988 19.691999 27.084 34.68 41.976002 46.872002 50.172001 56.459999 59.759998 67.152 72.143997 79.739998 87.335999 94.931999 98.736 106.332 113.928 121.62 125.424 133.42799 140.82001 148.416 156.01199 160.29601 167.592 170.892 178.48801"
                 y="0"
                 sodipodi:role="line"
                 id="tspan3428">Kategorisierung und Rangfolge</tspan></text>
</g><g
             id="g3430"
             transform="translate(56.8,774.1)"><path
               inkscape:connector-curvature="0"
               d="m 0,-1.2 186,0"
               style="fill:none;stroke:#000000;stroke-width:0.69999999;stroke-linecap:butt;stroke-linejoin:miter;stroke-miterlimit:10;stroke-opacity:1;stroke-dasharray:none"
               id="path3432" /></g><path
             inkscape:connector-curvature="0"
             d="m 112.7,756.8 -0.5,-0.6 -54.9,0 -0.6,0.6 -0.5,0.5 57.1,0 -0.6,-0.5 z"
             style="fill:#000000;fill-opacity:1;fill-rule:evenodd;stroke:none"
             id="path3434" /><path
             inkscape:connector-curvature="0"
             d="m 158,756.8 -0.5,-0.6 -44.2,0 -0.6,0.6 -0.5,0.5 46.4,0 -0.6,-0.5 z"
             style="fill:#000000;fill-opacity:1;fill-rule:evenodd;stroke:none"
             id="path3436" /><path
             inkscape:connector-curvature="0"
             d="m 220.2,756.8 -0.5,-0.6 -61.1,0 -0.6,0.6 -0.5,0.5 63.3,0 -0.6,-0.5 z"
             style="fill:#000000;fill-opacity:1;fill-rule:evenodd;stroke:none"
             id="path3438" /><path
             inkscape:connector-curvature="0"
             d="m 318.9,756.8 -0.5,-0.6 -97.6,0 -0.6,0.6 -0.5,0.5 99.8,0 -0.6,-0.5 z"
             style="fill:#000000;fill-opacity:1;fill-rule:evenodd;stroke:none"
             id="path3440" /><path
             inkscape:connector-curvature="0"
             d="m 112.7,734 -0.5,-0.6 -54.9,0 -0.6,0.6 0.6,0.5 54.9,0 0.5,-0.5 z"
             style="fill:#000000;fill-opacity:1;fill-rule:evenodd;stroke:none"
             id="path3442" /><path
             inkscape:connector-curvature="0"
             d="m 158,734 -0.5,-0.6 -44.2,0 -0.6,0.6 0.6,0.5 44.2,0 0.5,-0.5 z"
             style="fill:#000000;fill-opacity:1;fill-rule:evenodd;stroke:none"
             id="path3444" /><path
             inkscape:connector-curvature="0"
             d="m 220.2,734 -0.5,-0.6 -61.1,0 -0.6,0.6 0.6,0.5 61.1,0 0.5,-0.5 z"
             style="fill:#000000;fill-opacity:1;fill-rule:evenodd;stroke:none"
             id="path3446" /><path
             inkscape:connector-curvature="0"
             d="m 318.9,734 -0.5,-0.6 -97.6,0 -0.6,0.6 0.6,0.5 97.6,0 0.5,-0.5 z"
             style="fill:#000000;fill-opacity:1;fill-rule:evenodd;stroke:none"
             id="path3448" /><path
             inkscape:connector-curvature="0"
             d="m 112.7,713.5 -0.5,-0.6 -54.9,0 -0.6,0.6 0.6,0.5 54.9,0 0.5,-0.5 z"
             style="fill:#000000;fill-opacity:1;fill-rule:evenodd;stroke:none"
             id="path3450" /><path
             inkscape:connector-curvature="0"
             d="m 158,713.5 -0.5,-0.6 -44.2,0 -0.6,0.6 0.6,0.5 44.2,0 0.5,-0.5 z"
             style="fill:#000000;fill-opacity:1;fill-rule:evenodd;stroke:none"
             id="path3452" /><path
             inkscape:connector-curvature="0"
             d="m 220.2,713.5 -0.5,-0.6 -61.1,0 -0.6,0.6 0.6,0.5 61.1,0 0.5,-0.5 z"
             style="fill:#000000;fill-opacity:1;fill-rule:evenodd;stroke:none"
             id="path3454" /><path
             inkscape:connector-curvature="0"
             d="m 318.9,713.5 -0.5,-0.6 -97.6,0 -0.6,0.6 0.6,0.5 97.6,0 0.5,-0.5 z"
             style="fill:#000000;fill-opacity:1;fill-rule:evenodd;stroke:none"
             id="path3456" /><path
             inkscape:connector-curvature="0"
             d="m 112.7,693 -0.5,-0.6 -54.9,0 -0.6,0.6 0.6,0.5 54.9,0 0.5,-0.5 z"
             style="fill:#000000;fill-opacity:1;fill-rule:evenodd;stroke:none"
             id="path3458" /><path
             inkscape:connector-curvature="0"
             d="m 158,693 -0.5,-0.6 -44.2,0 -0.6,0.6 0.6,0.5 44.2,0 0.5,-0.5 z"
             style="fill:#000000;fill-opacity:1;fill-rule:evenodd;stroke:none"
             id="path3460" /><path
             inkscape:connector-curvature="0"
             d="m 220.2,693 -0.5,-0.6 -61.1,0 -0.6,0.6 0.6,0.5 61.1,0 0.5,-0.5 z"
             style="fill:#000000;fill-opacity:1;fill-rule:evenodd;stroke:none"
             id="path3462" /><path
             inkscape:connector-curvature="0"
             d="m 318.9,693 -0.5,-0.6 -97.6,0 -0.6,0.6 0.6,0.5 97.6,0 0.5,-0.5 z"
             style="fill:#000000;fill-opacity:1;fill-rule:evenodd;stroke:none"
             id="path3464" /><path
             inkscape:connector-curvature="0"
             d="m 112.7,672.5 -0.5,-0.6 -54.9,0 -0.6,0.6 0.6,0.5 54.9,0 0.5,-0.5 z"
             style="fill:#000000;fill-opacity:1;fill-rule:evenodd;stroke:none"
             id="path3466" /><path
             inkscape:connector-curvature="0"
             d="m 158,672.5 -0.5,-0.6 -44.2,0 -0.6,0.6 0.6,0.5 44.2,0 0.5,-0.5 z"
             style="fill:#000000;fill-opacity:1;fill-rule:evenodd;stroke:none"
             id="path3468" /><path
             inkscape:connector-curvature="0"
             d="m 220.2,672.5 -0.5,-0.6 -61.1,0 -0.6,0.6 0.6,0.5 61.1,0 0.5,-0.5 z"
             style="fill:#000000;fill-opacity:1;fill-rule:evenodd;stroke:none"
             id="path3470" /><path
             inkscape:connector-curvature="0"
             d="m 318.9,672.5 -0.5,-0.6 -97.6,0 -0.6,0.6 0.6,0.5 97.6,0 0.5,-0.5 z"
             style="fill:#000000;fill-opacity:1;fill-rule:evenodd;stroke:none"
             id="path3472" /><path
             inkscape:connector-curvature="0"
             d="m 112.7,652 -0.5,-0.6 -54.9,0 -0.6,0.6 0.6,0.5 54.9,0 0.5,-0.5 z"
             style="fill:#000000;fill-opacity:1;fill-rule:evenodd;stroke:none"
             id="path3474" /><path
             inkscape:connector-curvature="0"
             d="m 158,652 -0.5,-0.6 -44.2,0 -0.6,0.6 0.6,0.5 44.2,0 0.5,-0.5 z"
             style="fill:#000000;fill-opacity:1;fill-rule:evenodd;stroke:none"
             id="path3476" /><path
             inkscape:connector-curvature="0"
             d="m 220.2,652 -0.5,-0.6 -61.1,0 -0.6,0.6 0.6,0.5 61.1,0 0.5,-0.5 z"
             style="fill:#000000;fill-opacity:1;fill-rule:evenodd;stroke:none"
             id="path3478" /><path
             inkscape:connector-curvature="0"
             d="m 318.9,652 -0.5,-0.6 -97.6,0 -0.6,0.6 0.6,0.5 97.6,0 0.5,-0.5 z"
             style="fill:#000000;fill-opacity:1;fill-rule:evenodd;stroke:none"
             id="path3480" /><path
             inkscape:connector-curvature="0"
             d="m 112.7,631.5 0.6,-0.6 -57.1,0 0.5,0.6 0.6,0.5 54.9,0 0.5,-0.5 z"
             style="fill:#000000;fill-opacity:1;fill-rule:evenodd;stroke:none"
             id="path3482" /><path
             inkscape:connector-curvature="0"
             d="m 158,631.5 0.6,-0.6 -46.4,0 0.5,0.6 0.6,0.5 44.2,0 0.5,-0.5 z"
             style="fill:#000000;fill-opacity:1;fill-rule:evenodd;stroke:none"
             id="path3484" /><path
             inkscape:connector-curvature="0"
             d="m 220.2,631.5 0.6,-0.6 -63.3,0 0.5,0.6 0.6,0.5 61.1,0 0.5,-0.5 z"
             style="fill:#000000;fill-opacity:1;fill-rule:evenodd;stroke:none"
             id="path3486" /><path
             inkscape:connector-curvature="0"
             d="m 318.9,631.5 0.6,-0.6 -99.8,0 0.5,0.6 0.6,0.5 97.6,0 0.5,-0.5 z"
             style="fill:#000000;fill-opacity:1;fill-rule:evenodd;stroke:none"
             id="path3488" /><path
             inkscape:connector-curvature="0"
             d="m 56.7,756.8 0.6,-0.6 0,-21.7 -0.6,-0.5 -0.5,-0.6 0,23.9 0.5,-0.5 z"
             style="fill:#000000;fill-opacity:1;fill-rule:evenodd;stroke:none"
             id="path3490" /><path
             inkscape:connector-curvature="0"
             d="m 56.7,734 0.6,-0.6 0,-19.4 -0.6,-0.5 -0.5,-0.6 0,21.6 0.5,-0.5 z"
             style="fill:#000000;fill-opacity:1;fill-rule:evenodd;stroke:none"
             id="path3492" /><path
             inkscape:connector-curvature="0"
             d="m 56.7,713.5 0.6,-0.6 0,-19.4 -0.6,-0.5 -0.5,-0.6 0,21.6 0.5,-0.5 z"
             style="fill:#000000;fill-opacity:1;fill-rule:evenodd;stroke:none"
             id="path3494" /><path
             inkscape:connector-curvature="0"
             d="m 56.7,693 0.6,-0.6 0,-19.4 -0.6,-0.5 -0.5,-0.6 0,21.6 0.5,-0.5 z"
             style="fill:#000000;fill-opacity:1;fill-rule:evenodd;stroke:none"
             id="path3496" /><path
             inkscape:connector-curvature="0"
             d="m 56.7,672.5 0.6,-0.6 0,-19.4 -0.6,-0.5 -0.5,-0.6 0,21.6 0.5,-0.5 z"
             style="fill:#000000;fill-opacity:1;fill-rule:evenodd;stroke:none"
             id="path3498" /><path
             inkscape:connector-curvature="0"
             d="m 56.7,652 0.6,-0.6 0,-19.4 -0.6,-0.5 -0.5,-0.6 0,21.6 0.5,-0.5 z"
             style="fill:#000000;fill-opacity:1;fill-rule:evenodd;stroke:none"
             id="path3500" /><path
             inkscape:connector-curvature="0"
             d="m 112.7,756.8 0.6,-0.6 0,-21.7 -0.6,-0.5 -0.5,0.5 0,21.7 0.5,0.6 z"
             style="fill:#000000;fill-opacity:1;fill-rule:evenodd;stroke:none"
             id="path3502" /><path
             inkscape:connector-curvature="0"
             d="m 112.7,734 0.6,-0.6 0,-19.4 -0.6,-0.5 -0.5,0.5 0,19.4 0.5,0.6 z"
             style="fill:#000000;fill-opacity:1;fill-rule:evenodd;stroke:none"
             id="path3504" /><path
             inkscape:connector-curvature="0"
             d="m 112.7,713.5 0.6,-0.6 0,-19.4 -0.6,-0.5 -0.5,0.5 0,19.4 0.5,0.6 z"
             style="fill:#000000;fill-opacity:1;fill-rule:evenodd;stroke:none"
             id="path3506" /><path
             inkscape:connector-curvature="0"
             d="m 112.7,693 0.6,-0.6 0,-19.4 -0.6,-0.5 -0.5,0.5 0,19.4 0.5,0.6 z"
             style="fill:#000000;fill-opacity:1;fill-rule:evenodd;stroke:none"
             id="path3508" /><path
             inkscape:connector-curvature="0"
             d="m 112.7,672.5 0.6,-0.6 0,-19.4 -0.6,-0.5 -0.5,0.5 0,19.4 0.5,0.6 z"
             style="fill:#000000;fill-opacity:1;fill-rule:evenodd;stroke:none"
             id="path3510" /><path
             inkscape:connector-curvature="0"
             d="m 112.7,652 0.6,-0.6 0,-19.4 -0.6,-0.5 -0.5,0.5 0,19.4 0.5,0.6 z"
             style="fill:#000000;fill-opacity:1;fill-rule:evenodd;stroke:none"
             id="path3512" /><path
             inkscape:connector-curvature="0"
             d="m 158,756.8 0.6,-0.6 0,-21.7 -0.6,-0.5 -0.5,0.5 0,21.7 0.5,0.6 z"
             style="fill:#000000;fill-opacity:1;fill-rule:evenodd;stroke:none"
             id="path3514" /><path
             inkscape:connector-curvature="0"
             d="m 158,734 0.6,-0.6 0,-19.4 -0.6,-0.5 -0.5,0.5 0,19.4 0.5,0.6 z"
             style="fill:#000000;fill-opacity:1;fill-rule:evenodd;stroke:none"
             id="path3516" /><path
             inkscape:connector-curvature="0"
             d="m 158,713.5 0.6,-0.6 0,-19.4 -0.6,-0.5 -0.5,0.5 0,19.4 0.5,0.6 z"
             style="fill:#000000;fill-opacity:1;fill-rule:evenodd;stroke:none"
             id="path3518" /><path
             inkscape:connector-curvature="0"
             d="m 158,693 0.6,-0.6 0,-19.4 -0.6,-0.5 -0.5,0.5 0,19.4 0.5,0.6 z"
             style="fill:#000000;fill-opacity:1;fill-rule:evenodd;stroke:none"
             id="path3520" /><path
             inkscape:connector-curvature="0"
             d="m 158,672.5 0.6,-0.6 0,-19.4 -0.6,-0.5 -0.5,0.5 0,19.4 0.5,0.6 z"
             style="fill:#000000;fill-opacity:1;fill-rule:evenodd;stroke:none"
             id="path3522" /><path
             inkscape:connector-curvature="0"
             d="m 158,652 0.6,-0.6 0,-19.4 -0.6,-0.5 -0.5,0.5 0,19.4 0.5,0.6 z"
             style="fill:#000000;fill-opacity:1;fill-rule:evenodd;stroke:none"
             id="path3524" /><path
             inkscape:connector-curvature="0"
             d="m 220.2,756.8 0.6,-0.6 0,-21.7 -0.6,-0.5 -0.5,0.5 0,21.7 0.5,0.6 z"
             style="fill:#000000;fill-opacity:1;fill-rule:evenodd;stroke:none"
             id="path3526-0" /><path
             inkscape:connector-curvature="0"
             d="m 220.2,734 0.6,-0.6 0,-19.4 -0.6,-0.5 -0.5,0.5 0,19.4 0.5,0.6 z"
             style="fill:#000000;fill-opacity:1;fill-rule:evenodd;stroke:none"
             id="path3528" /><path
             inkscape:connector-curvature="0"
             d="m 220.2,713.5 0.6,-0.6 0,-19.4 -0.6,-0.5 -0.5,0.5 0,19.4 0.5,0.6 z"
             style="fill:#000000;fill-opacity:1;fill-rule:evenodd;stroke:none"
             id="path3530" /><path
             inkscape:connector-curvature="0"
             d="m 220.2,693 0.6,-0.6 0,-19.4 -0.6,-0.5 -0.5,0.5 0,19.4 0.5,0.6 z"
             style="fill:#000000;fill-opacity:1;fill-rule:evenodd;stroke:none"
             id="path3532" /><path
             inkscape:connector-curvature="0"
             d="m 220.2,672.5 0.6,-0.6 0,-19.4 -0.6,-0.5 -0.5,0.5 0,19.4 0.5,0.6 z"
             style="fill:#000000;fill-opacity:1;fill-rule:evenodd;stroke:none"
             id="path3534" /><path
             inkscape:connector-curvature="0"
             d="m 220.2,652 0.6,-0.6 0,-19.4 -0.6,-0.5 -0.5,0.5 0,19.4 0.5,0.6 z"
             style="fill:#000000;fill-opacity:1;fill-rule:evenodd;stroke:none"
             id="path3536" /><path
             inkscape:connector-curvature="0"
             d="m 318.9,756.8 0.6,0.5 0,-23.9 -0.6,0.6 -0.5,0.5 0,21.7 0.5,0.6 z"
             style="fill:#000000;fill-opacity:1;fill-rule:evenodd;stroke:none"
             id="path3538" /><path
             inkscape:connector-curvature="0"
             d="m 318.9,734 0.6,0.5 0,-21.6 -0.6,0.6 -0.5,0.5 0,19.4 0.5,0.6 z"
             style="fill:#000000;fill-opacity:1;fill-rule:evenodd;stroke:none"
             id="path3540" /><path
             inkscape:connector-curvature="0"
             d="m 318.9,713.5 0.6,0.5 0,-21.6 -0.6,0.6 -0.5,0.5 0,19.4 0.5,0.6 z"
             style="fill:#000000;fill-opacity:1;fill-rule:evenodd;stroke:none"
             id="path3542" /><path
             inkscape:connector-curvature="0"
             d="m 318.9,693 0.6,0.5 0,-21.6 -0.6,0.6 -0.5,0.5 0,19.4 0.5,0.6 z"
             style="fill:#000000;fill-opacity:1;fill-rule:evenodd;stroke:none"
             id="path3544" /><path
             inkscape:connector-curvature="0"
             d="m 318.9,672.5 0.6,0.5 0,-21.6 -0.6,0.6 -0.5,0.5 0,19.4 0.5,0.6 z"
             style="fill:#000000;fill-opacity:1;fill-rule:evenodd;stroke:none"
             id="path3546" /><path
             inkscape:connector-curvature="0"
             d="m 318.9,652 0.6,0.5 0,-21.6 -0.6,0.6 -0.5,0.5 0,19.4 0.5,0.6 z"
             style="fill:#000000;fill-opacity:1;fill-rule:evenodd;stroke:none"
             id="path3548" /><text
             transform="matrix(1,0,0,-1,59.6,740.5)"
             id="text3550"><tspan
               style="font-size:14px;font-variant:normal;font-weight:bold;writing-mode:lr-tb;fill:#000000;fill-opacity:1;fill-rule:nonzero;stroke:none;font-family:DejaVuSans;-inkscape-font-specification:DejaVuSans-Bold"
               x="0 11.704 21.098 35.686001"
               y="0"
               sodipodi:role="line"
               id="tspan3552">Name</tspan></text>
<text
             transform="matrix(1,0,0,-1,115.6,740.5)"
             id="text3554"><tspan
               style="font-size:14px;font-variant:normal;font-weight:bold;writing-mode:lr-tb;fill:#000000;fill-opacity:1;fill-rule:nonzero;stroke:none;font-family:DejaVuSans;-inkscape-font-specification:DejaVuSans-Bold"
               x="0 10.794 15.582 22.274 31.766001"
               y="0"
               sodipodi:role="line"
               id="tspan3556">Alter</tspan></text>
<text
             transform="matrix(1,0,0,-1,160.9,740.5)"
             id="text3558"><tspan
               style="font-size:14px;font-variant:normal;font-weight:bold;writing-mode:lr-tb;fill:#000000;fill-opacity:1;fill-rule:nonzero;stroke:none;font-family:DejaVuSans;-inkscape-font-specification:DejaVuSans-Bold"
               x="0 10.08 16.771999 26.166 36.161999"
               y="0"
               sodipodi:role="line"
               id="tspan3560">Stadt</tspan></text>
<text
             transform="matrix(1,0,0,-1,223.1,740.5)"
             id="text3562"><tspan
               style="font-size:14px;font-variant:normal;font-weight:bold;writing-mode:lr-tb;fill:#000000;fill-opacity:1;fill-rule:nonzero;stroke:none;font-family:DejaVuSans;-inkscape-font-specification:DejaVuSans-Bold"
               x="0 13.986 23.379999 33.278 43.259998 51.562 59.849998 69.832001 79.225998 85.316002"
               y="0"
               sodipodi:role="line"
               id="tspan3564">Mannschaft</tspan></text>
<text
             transform="matrix(1,0,0,-1,59.6,719.6)"
             id="text3566"><tspan
               style="font-size:12px;font-variant:normal;font-weight:normal;writing-mode:lr-tb;fill:#000000;fill-opacity:1;fill-rule:nonzero;stroke:none;font-family:DejaVuSans;-inkscape-font-specification:DejaVuSans"
               x="0 9 16.392 23.988001"
               y="0"
               sodipodi:role="line"
               id="tspan3568">Hans</tspan></text>
<text
             transform="matrix(1,0,0,-1,115.6,719.6)"
             id="text3570"><tspan
               style="font-size:12px;font-variant:normal;font-weight:normal;writing-mode:lr-tb;fill:#000000;fill-opacity:1;fill-rule:nonzero;stroke:none;font-family:DejaVuSans;-inkscape-font-specification:DejaVuSans"
               x="0 7.5960002"
               y="0"
               sodipodi:role="line"
               id="tspan3572">23</tspan></text>
<text
             transform="matrix(1,0,0,-1,160.9,719.6)"
             id="text3574"><tspan
               style="font-size:12px;font-variant:normal;font-weight:normal;writing-mode:lr-tb;fill:#000000;fill-opacity:1;fill-rule:nonzero;stroke:none;font-family:DejaVuSans;-inkscape-font-specification:DejaVuSans"
               x="0 9 16.392 28.08 35.675999 43.271999 47.976002"
               y="0"
               sodipodi:role="line"
               id="tspan3576">Hamburg</tspan></text>
<text
             transform="matrix(1,0,0,-1,265.5,719.6)"
             id="text3578"><tspan
               style="font-size:12px;font-variant:normal;font-weight:normal;writing-mode:lr-tb;fill:#000000;fill-opacity:1;fill-rule:nonzero;stroke:none;font-family:DejaVuSans;-inkscape-font-specification:DejaVuSans"
               x="0"
               y="0"
               id="tspan3580">C</tspan></text>
<text
             transform="matrix(1,0,0,-1,59.6,699.1)"
             id="text3582"><tspan
               style="font-size:12px;font-variant:normal;font-weight:normal;writing-mode:lr-tb;fill:#000000;fill-opacity:1;fill-rule:nonzero;stroke:none;font-family:DejaVuSans;-inkscape-font-specification:DejaVuSans"
               x="0 6.5999999 13.992 21.684 24.983999"
               y="0"
               sodipodi:role="line"
               id="tspan3584">Paula</tspan></text>
<text
             transform="matrix(1,0,0,-1,115.6,699.1)"
             id="text3586"><tspan
               style="font-size:12px;font-variant:normal;font-weight:normal;writing-mode:lr-tb;fill:#000000;fill-opacity:1;fill-rule:nonzero;stroke:none;font-family:DejaVuSans;-inkscape-font-specification:DejaVuSans"
               x="0 7.5960002"
               y="0"
               sodipodi:role="line"
               id="tspan3588">45</tspan></text>
<text
             transform="matrix(1,0,0,-1,160.9,699.1)"
             id="text3590"><tspan
               style="font-size:12px;font-variant:normal;font-weight:normal;writing-mode:lr-tb;fill:#000000;fill-opacity:1;fill-rule:nonzero;stroke:none;font-family:DejaVuSans;-inkscape-font-specification:DejaVuSans"
               x="0 7.8839998 11.184 18.576"
               y="0"
               sodipodi:role="line"
               id="tspan3592">Kiel</tspan></text>
<text
             transform="matrix(1,0,0,-1,265.6,699.1)"
             id="text3594"><tspan
               style="font-size:12px;font-variant:normal;font-weight:normal;writing-mode:lr-tb;fill:#000000;fill-opacity:1;fill-rule:nonzero;stroke:none;font-family:DejaVuSans;-inkscape-font-specification:DejaVuSans"
               x="0"
               y="0"
               id="tspan3596">A</tspan></text>
<text
             transform="matrix(1,0,0,-1,59.6,678.6)"
             id="text3598"><tspan
               style="font-size:12px;font-variant:normal;font-weight:normal;writing-mode:lr-tb;fill:#000000;fill-opacity:1;fill-rule:nonzero;stroke:none;font-family:DejaVuSans;-inkscape-font-specification:DejaVuSans"
               x="0 6.0960002 10.692 18.084"
               y="0"
               sodipodi:role="line"
               id="tspan3600">Fred</tspan></text>
<text
             transform="matrix(1,0,0,-1,115.6,678.6)"
             id="text3602"><tspan
               style="font-size:12px;font-variant:normal;font-weight:normal;writing-mode:lr-tb;fill:#000000;fill-opacity:1;fill-rule:nonzero;stroke:none;font-family:DejaVuSans;-inkscape-font-specification:DejaVuSans"
               x="0 7.5960002"
               y="0"
               sodipodi:role="line"
               id="tspan3604">24</tspan></text>
<text
             transform="matrix(1,0,0,-1,160.9,678.6)"
             id="text3606"><tspan
               style="font-size:12px;font-variant:normal;font-weight:normal;writing-mode:lr-tb;fill:#000000;fill-opacity:1;fill-rule:nonzero;stroke:none;font-family:DejaVuSans;-inkscape-font-specification:DejaVuSans"
               x="0 10.392 17.988001 25.584 32.172001 39.768002 47.16"
               y="0"
               sodipodi:role="line"
               id="tspan3608">München</tspan></text>
<text
             transform="matrix(1,0,0,-1,265.5,678.6)"
             id="text3610"><tspan
               style="font-size:12px;font-variant:normal;font-weight:normal;writing-mode:lr-tb;fill:#000000;fill-opacity:1;fill-rule:nonzero;stroke:none;font-family:DejaVuSans;-inkscape-font-specification:DejaVuSans"
               x="0"
               y="0"
               id="tspan3612">C</tspan></text>
<text
             transform="matrix(1,0,0,-1,59.6,658.1)"
             id="text3614"><tspan
               style="font-size:12px;font-variant:normal;font-weight:normal;writing-mode:lr-tb;fill:#000000;fill-opacity:1;fill-rule:nonzero;stroke:none;font-family:DejaVuSans;-inkscape-font-specification:DejaVuSans"
               x="0 7.1999998 14.592 22.188 29.58 35.784 42.071999"
               y="0"
               sodipodi:role="line"
               id="tspan3616">Vanessa</tspan></text>
<text
             transform="matrix(1,0,0,-1,115.6,658.1)"
             id="text3618"><tspan
               style="font-size:12px;font-variant:normal;font-weight:normal;writing-mode:lr-tb;fill:#000000;fill-opacity:1;fill-rule:nonzero;stroke:none;font-family:DejaVuSans;-inkscape-font-specification:DejaVuSans"
               x="0 7.5960002"
               y="0"
               sodipodi:role="line"
               id="tspan3620">21</tspan></text>
<text
             transform="matrix(1,0,0,-1,160.9,658.1)"
             id="text3622"><tspan
               style="font-size:12px;font-variant:normal;font-weight:normal;writing-mode:lr-tb;fill:#000000;fill-opacity:1;fill-rule:nonzero;stroke:none;font-family:DejaVuSans;-inkscape-font-specification:DejaVuSans"
               x="0 7.5960002 12.3 19.896 24.6 29.304001 36.900002 44.292 49.188"
               y="0"
               sodipodi:role="line"
               id="tspan3624">Stuttgart</tspan></text>
<text
             transform="matrix(1,0,0,-1,265.6,658.1)"
             id="text3626"><tspan
               style="font-size:12px;font-variant:normal;font-weight:normal;writing-mode:lr-tb;fill:#000000;fill-opacity:1;fill-rule:nonzero;stroke:none;font-family:DejaVuSans;-inkscape-font-specification:DejaVuSans"
               x="0"
               y="0"
               id="tspan3628">B</tspan></text>
<text
             transform="matrix(1,0,0,-1,59.6,637.6)"
             id="text3630"><tspan
               style="font-size:12px;font-variant:normal;font-weight:normal;writing-mode:lr-tb;fill:#000000;fill-opacity:1;fill-rule:nonzero;stroke:none;font-family:DejaVuSans;-inkscape-font-specification:DejaVuSans"
               x="0 3.5039999 10.896 18.492001"
               y="0"
               sodipodi:role="line"
               id="tspan3632">Jenz</tspan></text>
<text
             transform="matrix(1,0,0,-1,115.6,637.6)"
             id="text3634"><tspan
               style="font-size:12px;font-variant:normal;font-weight:normal;writing-mode:lr-tb;fill:#000000;fill-opacity:1;fill-rule:nonzero;stroke:none;font-family:DejaVuSans;-inkscape-font-specification:DejaVuSans"
               x="0 7.5960002"
               y="0"
               sodipodi:role="line"
               id="tspan3636">30</tspan></text>
<text
             transform="matrix(1,0,0,-1,160.9,637.6)"
             id="text3638"><tspan
               style="font-size:12px;font-variant:normal;font-weight:normal;writing-mode:lr-tb;fill:#000000;fill-opacity:1;fill-rule:nonzero;stroke:none;font-family:DejaVuSans;-inkscape-font-specification:DejaVuSans"
               x="0 9 16.392 28.08 35.675999 43.271999 47.976002"
               y="0"
               sodipodi:role="line"
               id="tspan3640">Hamburg</tspan></text>
<text
             transform="matrix(1,0,0,-1,265.6,637.6)"
             id="text3642"><tspan
               style="font-size:12px;font-variant:normal;font-weight:normal;writing-mode:lr-tb;fill:#000000;fill-opacity:1;fill-rule:nonzero;stroke:none;font-family:DejaVuSans;-inkscape-font-specification:DejaVuSans"
               x="0"
               y="0"
               id="tspan3644">B</tspan></text>
</g></g><g
         id="g3646"><g
           id="g3648" /><g
           id="g3654"><g
             style="opacity:0.5"
             clip-path="url(#clipPath3650)"
             id="g3656" /></g></g></g><text
       transform="scale(1,-1)"
       xml:space="preserve"
       style="font-size:16px;font-style:normal;font-weight:normal;line-height:125%;letter-spacing:0px;word-spacing:0px;fill:#000000;fill-opacity:1;stroke:none;font-family:Sans"
       x="209.50429"
       y="-741.10291"
       id="text15143-0"
       sodipodi:linespacing="125%"><tspan
         sodipodi:role="line"
         id="tspan15145-0"
         x="209.50429"
         y="-741.10291"
         style="fill:#ff0000">levels(tabelle1$Mannschaft) &lt;- c(&quot;A&quot;, &quot;B&quot;, &quot;C&quot;)</tspan></text>
<path
       inkscape:connector-curvature="0"
       id="path9944-1-7"
       d="m 253.35169,663.42484 c -65.61011,86.65494 132.19222,75.59503 140.96829,41.47847 1.48091,-5.757 -8.49039,-31.86573 -31.44505,-31.66116 -32.81633,0.29245 -55.38932,4.87135 -70.12028,3.617 -11.3714,-0.96829 -17.48621,-6.80141 -21.32862,-11.18389"
       style="fill:none;stroke:#ff0000;stroke-width:0.78799999;stroke-linecap:butt;stroke-linejoin:miter;stroke-miterlimit:4;stroke-opacity:1;stroke-dasharray:none;marker-end:url(#Arrow2LendB)"
       sodipodi:nodetypes="csssc" /><text
       xml:space="preserve"
       style="font-size:16px;font-style:normal;font-weight:normal;line-height:125%;letter-spacing:0px;word-spacing:0px;fill:#000000;fill-opacity:1;stroke:none;font-family:Sans"
       x="280.67825"
       y="-699.67151"
       id="text5062"
       sodipodi:linespacing="125%"
       transform="scale(1,-1)"><tspan
         sodipodi:role="line"
         id="tspan5064"
         x="280.67825"
         y="-699.67151">A &lt; B &lt; C</tspan></text>
<text
       xml:space="preserve"
       style="font-size:16px;font-style:normal;font-weight:normal;line-height:125%;letter-spacing:0px;word-spacing:0px;fill:#000000;fill-opacity:1;stroke:none;font-family:Sans"
       x="66.121323"
       y="-754.9975"
       id="text5066"
       sodipodi:linespacing="125%"
       transform="scale(1,-1)"><tspan
         sodipodi:role="line"
         id="tspan5068"
         x="66.121323"
         y="-754.9975">B | A | C</tspan></text>
<rect
       transform="scale(1,-1)"
       y="-663.03131"
       x="176.27325"
       height="125.10399"
       width="97.48645"
       id="rect5733"
       style="fill:none;stroke:#ff0000;stroke-width:3.2;stroke-linecap:round;stroke-linejoin:miter;stroke-miterlimit:0;stroke-opacity:1;stroke-dasharray:none" /></g></svg>